<?xml version="1.0" encoding="UTF-8"?>
<!DOCTYPE svg PUBLIC "-//W3C//DTD SVG 1.1//EN" "http://www.w3.org/Graphics/SVG/1.1/DTD/svg11.dtd">
<!-- Creator: CorelDRAW X7 -->
<svg xmlns="http://www.w3.org/2000/svg" xml:space="preserve" width="3000px" height="3000px" version="1.1" style="shape-rendering:geometricPrecision; text-rendering:geometricPrecision; image-rendering:optimizeQuality; fill-rule:evenodd; clip-rule:evenodd"
viewBox="0 0 3000 3000"
 xmlns:xlink="http://www.w3.org/1999/xlink"
 enable-background="new 0 0 595.3 648">
 <defs>
  <style type="text/css">
   <![CDATA[
    .fil0 {fill:none}
    .fil5 {fill:#FEFEFE}
    .fil2 {fill:#FFF000}
    .fil6 {fill:#E62129}
    .fil8 {fill:#009B4C}
    .fil1 {fill:#1D1819}
    .fil7 {fill:#FEFEFE;fill-rule:nonzero}
    .fil9 {fill:#1D1819;fill-rule:nonzero}
    .fil4 {fill:url(#id0)}
    .fil3 {fill:url(#id1)}
   ]]>
  </style>
  <linearGradient id="id0" gradientUnits="userSpaceOnUse" x1="1489.73" y1="1283.44" x2="1489.73" y2="3067.77">
   <stop offset="0" style="stop-opacity:1; stop-color:#00A2E9"/>
   <stop offset="1" style="stop-opacity:1; stop-color:#008FD7"/>
  </linearGradient>
  <radialGradient id="id1" gradientUnits="userSpaceOnUse" gradientTransform="matrix(2.05704 -0 -0 2.05704 -1580 -1456)" cx="1494.81" cy="1377.55" r="689.238" fx="1494.81" fy="1377.55">
   <stop offset="0" style="stop-opacity:1; stop-color:#ACCE22"/>
   <stop offset="1" style="stop-opacity:1; stop-color:#009B4C"/>
  </radialGradient>
 </defs>
 <g id="Layer_x0020_1">
  <metadata id="CorelCorpID_0Corel-Layer"/>
  <rect class="fil0" width="3000" height="3000"/>
  <g id="Kabupaten_x0020_Bekasi.cdr">
   <g>
    <g>
     <path class="fil1" d="M645 2712c-94,23 -84,-248 -429,-334 141,-85 175,-43 286,-35 -26,-83 -99,-130 -155,-186 288,-68 287,201 432,278 -31,83 -63,166 -94,249 -13,10 -26,19 -40,28z"/>
     <path class="fil2" d="M241 2375c114,32 206,90 278,186 13,17 24,35 36,52 9,15 18,30 27,44 10,15 26,40 45,45 5,2 10,2 14,1 12,-9 24,-17 36,-25 30,-80 60,-159 90,-239 -6,-3 -12,-7 -17,-12 -47,-34 -78,-88 -110,-135 -19,-29 -40,-58 -66,-82 -60,-55 -131,-62 -207,-47 57,54 119,97 145,177l4 14 -14 -1c-22,-2 -44,-5 -65,-9 -17,-3 -35,-6 -52,-8 -24,-2 -45,0 -68,6 -26,7 -52,19 -76,33z"/>
    </g>
    <path class="fil1" d="M2355 2712c94,23 84,-248 429,-334 -141,-85 -175,-43 -286,-35 26,-83 99,-130 155,-186 -288,-68 -287,201 -432,278 31,83 63,166 94,249 13,10 26,19 40,28z"/>
    <path class="fil2" d="M2759 2375c-24,-14 -50,-26 -76,-33 -23,-6 -44,-8 -68,-6 -17,2 -35,5 -52,8 -21,4 -43,7 -65,9l-14 1 4 -14c26,-80 88,-123 145,-177 -76,-15 -147,-8 -207,47 -72,66 -108,179 -193,229 30,80 60,159 90,239 12,8 24,16 36,25 4,1 9,1 14,-1 19,-5 35,-30 45,-45 9,-14 18,-29 27,-44 12,-17 23,-35 36,-52 72,-96 164,-154 278,-186z"/>
    <path class="fil1" d="M594 2562c3,50 100,95 51,150 86,-29 172,-57 258,-86 -64,-34 -129,-68 -193,-102 -39,13 -78,25 -116,38z"/>
    <path class="fil2" d="M605 2569c5,16 20,34 29,45 21,25 41,52 33,80 70,-23 141,-46 211,-70 -56,-30 -113,-59 -169,-89 -35,11 -69,22 -104,34z"/>
    <path class="fil1" d="M2406 2527c21,83 -100,130 -51,185 -86,-29 -172,-57 -258,-86 64,-34 129,-68 193,-102 39,13 77,-9 116,3z"/>
    <path class="fil2" d="M2397 2535c-7,-2 -14,-2 -22,-2 -29,1 -55,10 -84,2 -56,30 -113,59 -169,89 71,24 142,47 212,71 0,-3 -1,-7 -1,-10 0,-17 9,-32 17,-45 10,-14 21,-27 30,-41 13,-20 21,-41 17,-64z"/>
   </g>
   <path class="fil1" d="M2406 2527c-220,230 -529,373 -870,373l-108 0c-323,0 -617,-129 -834,-338l191 -195 762 -503 95 42 564 436 200 185z"/>
   <path class="fil2" d="M2391 2528l-191 -178 -563 -435 -89 -40 -757 499 -183 188c222,210 514,328 820,328l108 0c324,0 630,-131 855,-362z"/>
   <path class="fil1" d="M2528 100l0 1533c0,541 -443,984 -984,984l-88 0c-541,0 -984,-443 -984,-984l0 -1533 2056 0z"/>
   <path class="fil1" d="M601 1836l0 2c1,6 2,11 4,16l0 4c1,5 3,10 4,15l1 4c1,5 2,10 4,15l1 3c1,6 3,11 4,16l0 2c9,29 19,58 31,86l1 2c2,5 4,10 6,15 1,1 1,2 2,3 2,4 4,9 6,14l2 3c2,5 4,10 6,14l2 4c2,4 5,9 7,13l1 3c3,5 6,10 8,14l0 1c12,21 24,41 38,61 0,1 1,2 1,2 3,5 6,9 9,13 0,1 1,2 2,3 3,4 6,8 8,12 1,1 2,3 3,4 3,4 6,7 9,11 1,2 2,3 3,5 3,3 6,7 9,10 1,2 2,3 3,4 3,4 6,8 9,11 1,1 2,3 3,4 3,3 6,7 9,11l1 1c11,12 23,25 35,37 1,1 2,2 3,3 3,3 6,6 9,10 2,1 3,2 5,4 3,3 6,6 9,8 1,2 3,4 5,5 3,3 6,6 9,8 2,2 3,4 5,5 3,3 6,6 9,8 2,2 4,3 6,5 3,3 6,5 9,8 2,1 4,3 6,4 3,3 6,5 9,8 2,1 4,3 6,4 3,3 7,5 10,8l0 0c8,6 16,12 24,17 2,2 4,3 7,5 3,2 6,4 9,6 2,1 5,3 7,4 3,2 6,4 9,6 3,2 5,3 8,5 3,2 6,4 9,5 2,2 5,4 8,5 3,2 6,4 8,5 3,2 6,4 9,5 3,2 6,3 9,5 3,1 6,3 9,5 3,1 5,3 8,4 3,2 7,3 10,5 2,1 5,2 8,4 4,2 8,4 12,6 3,1 5,2 8,3 5,2 10,5 16,7 2,1 5,2 7,3 4,2 7,3 11,5 3,1 5,2 8,3 4,1 7,2 11,4 2,1 5,2 8,3 4,1 7,2 11,4 2,1 5,2 8,2 4,2 7,3 11,4 3,1 5,2 8,3 4,1 8,2 11,3 3,1 6,2 9,2 3,1 7,2 11,4 3,0 5,1 8,2 5,1 9,2 14,3 2,0 4,1 6,1 6,2 13,3 19,5 2,0 4,0 6,1 5,1 9,2 14,3 3,0 5,0 8,1 4,1 8,1 13,2 2,0 5,1 8,1 4,1 8,1 12,2 3,0 6,1 9,1 4,1 8,1 12,1 2,1 5,1 8,1 4,1 8,1 12,1 3,1 6,1 9,1 4,0 8,1 13,1 2,0 5,0 8,0 5,1 9,1 14,1 2,0 4,0 7,0 7,0 14,0 21,0l88 0c7,0 14,0 21,0 2,0 4,0 6,0 5,0 10,0 15,-1 2,0 5,0 8,0 4,0 8,-1 12,-1 3,0 6,0 9,-1 4,0 8,0 12,-1 3,0 6,0 9,-1 4,0 8,0 12,-1 3,0 6,-1 9,-1 4,-1 8,-1 12,-2 2,0 5,-1 8,-1 4,-1 8,-1 13,-2 2,-1 5,-1 7,-1 5,-1 10,-2 15,-3 2,-1 3,-1 5,-1 7,-2 13,-3 20,-5 2,0 4,-1 6,-1 4,-1 9,-2 13,-3 3,-1 6,-2 8,-3 4,-1 8,-2 12,-3 3,0 5,-1 8,-2 4,-1 8,-2 11,-3 3,-1 6,-2 9,-3 3,-1 7,-2 10,-4 3,-1 6,-1 9,-2 3,-2 7,-3 10,-4 3,-1 6,-2 9,-3 3,-2 7,-3 10,-4 3,-1 6,-2 9,-3 3,-2 7,-3 10,-5 3,-1 5,-2 8,-3 5,-2 10,-4 15,-7 3,-1 6,-2 9,-4 4,-2 8,-3 12,-5 2,-2 5,-3 8,-4 3,-2 6,-3 9,-5 3,-1 6,-3 9,-4 3,-2 6,-4 9,-5 3,-2 6,-3 8,-5 3,-1 6,-3 9,-5 3,-1 6,-3 9,-5 2,-1 5,-3 8,-5 3,-1 6,-3 9,-5 2,-2 5,-3 8,-5 3,-2 5,-4 8,-5 3,-2 5,-4 8,-5 3,-2 6,-4 9,-6 2,-2 4,-3 6,-5 8,-5 15,-10 22,-15 1,-1 2,-2 3,-2 3,-3 6,-5 9,-8 2,-1 4,-3 6,-4 3,-3 6,-5 9,-8 2,-1 4,-3 6,-4 3,-3 6,-5 9,-8 2,-2 4,-3 6,-5 3,-2 6,-5 9,-8 2,-1 4,-3 6,-5 3,-2 6,-5 9,-8 1,-1 3,-3 5,-5 3,-2 6,-5 9,-8 1,-2 3,-3 4,-5 4,-3 7,-6 10,-9 1,-1 2,-2 3,-3 12,-12 24,-25 35,-38l0 0c3,-4 7,-7 10,-11 1,-1 2,-3 3,-4 3,-3 6,-7 8,-10 2,-2 3,-3 4,-5 3,-3 6,-7 8,-11 1,-1 3,-2 4,-4 2,-3 5,-7 8,-11 1,-1 2,-3 3,-4 3,-4 6,-8 8,-12 1,-1 2,-2 3,-3 3,-4 6,-9 8,-13 1,0 1,-1 2,-2 13,-20 26,-40 37,-61l0 -1c3,-4 5,-9 8,-14 1,-1 1,-2 2,-3 2,-4 4,-9 6,-13 1,-2 2,-3 2,-4 3,-5 5,-9 7,-14l2 -3c2,-5 4,-10 6,-14l1 -3c2,-5 5,-10 7,-15l0 -2c12,-28 22,-57 31,-86l0 -2c2,-5 3,-10 5,-16l1 -3c1,-5 2,-10 4,-15l1 -4c1,-5 2,-10 3,-15l1 -4c1,-5 2,-10 3,-16l1 -2c1,-6 2,-12 3,-17l-1784 0c1,5 2,11 3,17z"/>
   <path class="fil2" d="M2520 1545l0 44 0 44c0,537 -439,976 -976,976l-88 0c-537,0 -976,-439 -976,-976l0 -44 0 -44 0 -1437 2040 0 0 1437z"/>
   <path class="fil1" d="M2421 207l-1842 0 -10 1464c0,482 395,877 877,877l88 0c482,0 877,-395 877,-877l10 -1464z"/>
   <path class="fil3" d="M2405 223l-1810 0 -10 1448c0,474 387,861 861,861l88 0c473,0 861,-387 861,-861l10 -1448z"/>
   <path class="fil4" d="M598 1819c70,404 425,713 848,713l88 0c423,0 777,-309 848,-713l-1784 0z"/>
   <polygon class="fil1" points="585,1381 1492,1381 2400,1381 2252,1235 1530,1235 1492,1304 1455,1235 733,1235 "/>
   <polygon class="fil5" points="663,1381 694,1381 767,1309 1422,1309 1481,1381 1493,1381 1505,1381 1565,1309 2219,1309 2293,1381 2323,1381 2232,1290 1551,1290 1493,1356 1435,1290 755,1290 "/>
   <path class="fil6" d="M598 1819l68 0 0 -73 -78 0c2,24 5,49 10,73z"/>
   <path class="fil7" d="M597 1814l64 0 0 -63 -72 0c-1,-3 -1,-7 -1,-10l78 0 4 0 0 5 0 73 0 5 -4 0 -68 0c0,-4 -1,-7 -1,-10z"/>
   <polygon class="fil6" points="789,1819 666,1819 666,1746 789,1746 "/>
   <path class="fil7" d="M789 1824l-123 0 -5 0 0 -5 0 -73 0 -5 5 0 123 0 5 0 0 5 0 73 0 5 -5 0zm-119 -10l114 0 0 -63 -114 0 0 63z"/>
   <polygon class="fil6" points="789,1819 912,1819 912,1746 789,1746 "/>
   <path class="fil7" d="M794 1814l113 0 0 -63 -113 0 0 63zm118 10l-123 0 -5 0 0 -5 0 -73 0 -5 5 0 123 0 5 0 0 5 0 73 0 5 -5 0z"/>
   <polygon class="fil6" points="1282,1819 1159,1819 1159,1746 1282,1746 "/>
   <path class="fil7" d="M1282 1824l-123 0 -5 0 0 -5 0 -73 0 -5 5 0 123 0 5 0 0 5 0 73 0 5 -5 0zm-118 -10l113 0 0 -63 -113 0 0 63z"/>
   <polygon class="fil6" points="1035,1819 1159,1819 1159,1746 1035,1746 "/>
   <path class="fil7" d="M1040 1814l114 0 0 -63 -114 0 0 63zm119 10l-124 0 -5 0 0 -5 0 -73 0 -5 5 0 124 0 5 0 0 5 0 73 0 5 -5 0z"/>
   <polygon class="fil6" points="1035,1819 912,1819 912,1746 1035,1746 "/>
   <path class="fil7" d="M1035 1824l-123 0 -5 0 0 -5 0 -73 0 -5 5 0 123 0 5 0 0 5 0 73 0 5 -5 0zm-118 -10l113 0 0 -63 -113 0 0 63z"/>
   <polygon class="fil6" points="2022,1819 1898,1819 1898,1746 2022,1746 "/>
   <path class="fil7" d="M2022 1824l-124 0 -5 0 0 -5 0 -73 0 -5 5 0 124 0 5 0 0 5 0 73 0 5 -5 0zm-119 -10l114 0 0 -63 -114 0 0 63z"/>
   <polygon class="fil6" points="1775,1819 1898,1819 1898,1746 1775,1746 "/>
   <path class="fil7" d="M1780 1814l113 0 0 -63 -113 0 0 63zm118 10l-123 0 -5 0 0 -5 0 -73 0 -5 5 0 123 0 5 0 0 5 0 73 0 5 -5 0z"/>
   <polygon class="fil6" points="1775,1819 1652,1819 1652,1746 1775,1746 "/>
   <path class="fil7" d="M1775 1824l-123 0 -5 0 0 -5 0 -73 0 -5 5 0 123 0 5 0 0 5 0 73 0 5 -5 0zm-118 -10l113 0 0 -63 -113 0 0 63z"/>
   <polygon class="fil6" points="1282,1819 1405,1819 1405,1746 1282,1746 "/>
   <path class="fil7" d="M1287 1814l113 0 0 -63 -113 0 0 63zm118 10l-123 0 -5 0 0 -5 0 -73 0 -5 5 0 123 0 5 0 0 5 0 73 0 5 -5 0z"/>
   <polygon class="fil6" points="1529,1819 1405,1819 1405,1746 1529,1746 "/>
   <path class="fil7" d="M1529 1824l-124 0 -5 0 0 -5 0 -73 0 -5 5 0 124 0 4 0 0 5 0 73 0 5 -4 0zm-119 -10l114 0 0 -63 -114 0 0 63z"/>
   <polygon class="fil6" points="1529,1819 1652,1819 1652,1746 1529,1746 "/>
   <path class="fil7" d="M1533 1814l114 0 0 -63 -114 0 0 63zm119 10l-123 0 -5 0 0 -5 0 -73 0 -5 5 0 123 0 5 0 0 5 0 73 0 5 -5 0z"/>
   <polygon class="fil6" points="2022,1819 2145,1819 2145,1746 2022,1746 "/>
   <path class="fil7" d="M2027 1814l113 0 0 -63 -113 0 0 63zm118 10l-123 0 -5 0 0 -5 0 -73 0 -5 5 0 123 0 5 0 0 5 0 73 0 5 -5 0z"/>
   <polygon class="fil6" points="2268,1819 2145,1819 2145,1746 2268,1746 "/>
   <path class="fil7" d="M2268 1824l-123 0 -5 0 0 -5 0 -73 0 -5 5 0 123 0 5 0 0 5 0 73 0 5 -5 0zm-118 -10l113 0 0 -63 -113 0 0 63z"/>
   <path class="fil6" d="M2268 1819l114 0c4,-24 7,-49 9,-73l-123 0 0 73z"/>
   <path class="fil7" d="M2273 1814l110 0c-1,3 -1,6 -2,10l-113 0 -5 0 0 -5 0 -73 0 -5 5 0 123 0 1 0c-1,16 -3,32 -5,48l0 -38 -114 0 0 63z"/>
   <path class="fil7" d="M2387 1789l0 -43 0 -5 4 0 1 0c-1,16 -3,32 -5,48z"/>
   <polygon class="fil6" points="604,1673 727,1673 727,1746 604,1746 "/>
   <path class="fil7" d="M604 1668l123 0 5 0 0 5 0 73 0 5 -5 0 -123 0 -5 0 0 -5 0 -73 0 -5 5 0zm118 10l-113 0 0 63 113 0 0 -63z"/>
   <polygon class="fil6" points="850,1673 727,1673 727,1746 850,1746 "/>
   <path class="fil7" d="M845 1678l-113 0 0 63 113 0 0 -63zm-118 -10l123 0 5 0 0 5 0 73 0 5 -5 0 -123 0 -5 0 0 -5 0 -73 0 -5 5 0z"/>
   <polygon class="fil6" points="850,1673 974,1673 974,1746 850,1746 "/>
   <path class="fil7" d="M850 1668l124 0 5 0 0 5 0 73 0 5 -5 0 -124 0 -5 0 0 -5 0 -73 0 -5 5 0zm119 10l-114 0 0 63 114 0 0 -63z"/>
   <polygon class="fil6" points="1344,1673 1220,1673 1220,1746 1344,1746 "/>
   <path class="fil7" d="M1339 1678l-114 0 0 63 114 0 0 -63zm-119 -10l124 0 5 0 0 5 0 73 0 5 -5 0 -124 0 -5 0 0 -5 0 -73 0 -5 5 0z"/>
   <polygon class="fil6" points="1097,1673 1220,1673 1220,1746 1097,1746 "/>
   <path class="fil7" d="M1097 1668l123 0 5 0 0 5 0 73 0 5 -5 0 -123 0 -5 0 0 -5 0 -73 0 -5 5 0zm118 10l-113 0 0 63 113 0 0 -63z"/>
   <polygon class="fil6" points="1097,1673 974,1673 974,1746 1097,1746 "/>
   <path class="fil7" d="M1092 1678l-113 0 0 63 113 0 0 -63zm-118 -10l123 0 5 0 0 5 0 73 0 5 -5 0 -123 0 -5 0 0 -5 0 -73 0 -5 5 0z"/>
   <polygon class="fil6" points="2083,1673 1960,1673 1960,1746 2083,1746 "/>
   <path class="fil7" d="M2078 1678l-113 0 0 63 113 0 0 -63zm-118 -10l123 0 5 0 0 5 0 73 0 5 -5 0 -123 0 -5 0 0 -5 0 -73 0 -5 5 0z"/>
   <polygon class="fil6" points="1837,1673 1960,1673 1960,1746 1837,1746 "/>
   <path class="fil7" d="M1837 1668l123 0 5 0 0 5 0 73 0 5 -5 0 -123 0 -5 0 0 -5 0 -73 0 -5 5 0zm118 10l-113 0 0 63 113 0 0 -63z"/>
   <polygon class="fil6" points="1837,1673 1713,1673 1713,1746 1837,1746 "/>
   <path class="fil7" d="M1832 1678l-114 0 0 63 114 0 0 -63zm-119 -10l124 0 5 0 0 5 0 73 0 5 -5 0 -124 0 -5 0 0 -5 0 -73 0 -5 5 0z"/>
   <polygon class="fil6" points="1344,1673 1467,1673 1467,1746 1344,1746 "/>
   <path class="fil7" d="M1344 1668l123 0 5 0 0 5 0 73 0 5 -5 0 -123 0 -5 0 0 -5 0 -73 0 -5 5 0zm118 10l-113 0 0 63 113 0 0 -63z"/>
   <polygon class="fil6" points="1590,1673 1467,1673 1467,1746 1590,1746 "/>
   <path class="fil7" d="M1585 1678l-113 0 0 63 113 0 0 -63zm-118 -10l123 0 5 0 0 5 0 73 0 5 -5 0 -123 0 -5 0 0 -5 0 -73 0 -5 5 0z"/>
   <polygon class="fil6" points="1590,1673 1713,1673 1713,1746 1590,1746 "/>
   <path class="fil7" d="M1590 1668l123 0 5 0 0 5 0 73 0 5 -5 0 -123 0 -5 0 0 -5 0 -73 0 -5 5 0zm118 10l-113 0 0 63 113 0 0 -63z"/>
   <polygon class="fil6" points="2083,1673 2207,1673 2207,1746 2083,1746 "/>
   <path class="fil7" d="M2083 1668l124 0 5 0 0 5 0 73 0 5 -5 0 -124 0 -5 0 0 -5 0 -73 0 -5 5 0zm119 10l-114 0 0 63 114 0 0 -63z"/>
   <polygon class="fil6" points="2330,1673 2207,1673 2207,1746 2330,1746 "/>
   <path class="fil7" d="M2325 1678l-113 0 0 63 113 0 0 -63zm-118 -10l123 0 5 0 0 5 0 73 0 5 -5 0 -123 0 -5 0 0 -5 0 -73 0 -5 5 0z"/>
   <path class="fil6" d="M2330 1673l65 0c0,25 -2,49 -4,73l-61 0 0 -73z"/>
   <path class="fil7" d="M2330 1668l65 0 0 3c0,3 0,5 0,7l-60 0 0 63 57 0c0,3 -1,7 -1,10l-61 0 -5 0 0 -5 0 -73 0 -5 5 0z"/>
   <path class="fil6" d="M604 1673l-19 0c0,25 1,49 3,73l16 0 0 -73z"/>
   <path class="fil7" d="M599 1678l-14 0c0,-2 0,-4 0,-7l0 -3 19 0 5 0 0 5 0 73 0 5 -5 0 -15 0c-1,-3 -1,-7 -1,-10l11 0 0 -63z"/>
   <path class="fil6" d="M585 1600l81 0 0 73 -81 0c0,-1 0,-1 0,-2l0 -71z"/>
   <path class="fil7" d="M585 1595l81 0 4 0 0 5 0 73 0 5 -4 0 -81 0c0,-2 0,-4 0,-7l0 -3 76 0 0 -63 -76 0 0 -10z"/>
   <polygon class="fil6" points="789,1600 666,1600 666,1673 789,1673 "/>
   <path class="fil7" d="M784 1605l-114 0 0 63 114 0 0 -63zm-118 -10l123 0 5 0 0 5 0 73 0 5 -5 0 -123 0 -5 0 0 -5 0 -73 0 -5 5 0z"/>
   <polygon class="fil6" points="789,1600 912,1600 912,1673 789,1673 "/>
   <path class="fil7" d="M789 1595l123 0 5 0 0 5 0 73 0 5 -5 0 -123 0 -5 0 0 -5 0 -73 0 -5 5 0zm118 10l-113 0 0 63 113 0 0 -63z"/>
   <polygon class="fil6" points="1282,1600 1159,1600 1159,1673 1282,1673 "/>
   <path class="fil7" d="M1277 1605l-113 0 0 63 113 0 0 -63zm-118 -10l123 0 5 0 0 5 0 73 0 5 -5 0 -123 0 -5 0 0 -5 0 -73 0 -5 5 0z"/>
   <polygon class="fil6" points="1035,1600 1159,1600 1159,1673 1035,1673 "/>
   <path class="fil7" d="M1035 1595l124 0 5 0 0 5 0 73 0 5 -5 0 -124 0 -5 0 0 -5 0 -73 0 -5 5 0zm119 10l-114 0 0 63 114 0 0 -63z"/>
   <polygon class="fil6" points="1035,1600 912,1600 912,1673 1035,1673 "/>
   <path class="fil7" d="M1030 1605l-113 0 0 63 113 0 0 -63zm-118 -10l123 0 5 0 0 5 0 73 0 5 -5 0 -123 0 -5 0 0 -5 0 -73 0 -5 5 0z"/>
   <polygon class="fil6" points="2022,1600 1898,1600 1898,1673 2022,1673 "/>
   <path class="fil7" d="M2017 1605l-114 0 0 63 114 0 0 -63zm-119 -10l124 0 5 0 0 5 0 73 0 5 -5 0 -124 0 -5 0 0 -5 0 -73 0 -5 5 0z"/>
   <polygon class="fil6" points="1775,1600 1898,1600 1898,1673 1775,1673 "/>
   <path class="fil7" d="M1775 1595l123 0 5 0 0 5 0 73 0 5 -5 0 -123 0 -5 0 0 -5 0 -73 0 -5 5 0zm118 10l-113 0 0 63 113 0 0 -63z"/>
   <polygon class="fil6" points="1775,1600 1652,1600 1652,1673 1775,1673 "/>
   <path class="fil7" d="M1770 1605l-113 0 0 63 113 0 0 -63zm-118 -10l123 0 5 0 0 5 0 73 0 5 -5 0 -123 0 -5 0 0 -5 0 -73 0 -5 5 0z"/>
   <polygon class="fil6" points="1282,1600 1405,1600 1405,1673 1282,1673 "/>
   <path class="fil7" d="M1282 1595l123 0 5 0 0 5 0 73 0 5 -5 0 -123 0 -5 0 0 -5 0 -73 0 -5 5 0zm118 10l-113 0 0 63 113 0 0 -63z"/>
   <polygon class="fil6" points="1529,1600 1405,1600 1405,1673 1529,1673 "/>
   <path class="fil7" d="M1524 1605l-114 0 0 63 114 0 0 -63zm-119 -10l124 0 4 0 0 5 0 73 0 5 -4 0 -124 0 -5 0 0 -5 0 -73 0 -5 5 0z"/>
   <polygon class="fil6" points="1529,1600 1652,1600 1652,1673 1529,1673 "/>
   <path class="fil7" d="M1529 1595l123 0 5 0 0 5 0 73 0 5 -5 0 -123 0 -5 0 0 -5 0 -73 0 -5 5 0zm118 10l-114 0 0 63 114 0 0 -63z"/>
   <polygon class="fil6" points="2022,1600 2145,1600 2145,1673 2022,1673 "/>
   <path class="fil7" d="M2022 1595l123 0 5 0 0 5 0 73 0 5 -5 0 -123 0 -5 0 0 -5 0 -73 0 -5 5 0zm118 10l-113 0 0 63 113 0 0 -63z"/>
   <polygon class="fil6" points="2268,1600 2145,1600 2145,1673 2268,1673 "/>
   <path class="fil7" d="M2263 1605l-113 0 0 63 113 0 0 -63zm-118 -10l123 0 5 0 0 5 0 73 0 5 -5 0 -123 0 -5 0 0 -5 0 -73 0 -5 5 0z"/>
   <polygon class="fil6" points="2268,1600 2391,1600 2391,1673 2268,1673 "/>
   <path class="fil7" d="M2268 1595l123 0 4 0 0 76c0,3 0,5 0,7l-4 0 -123 0 -5 0 0 -5 0 -73 0 -5 5 0zm119 10l-114 0 0 63 114 0 0 -63z"/>
   <path class="fil6" d="M2395 1600l-4 0 0 73 4 0c0,-1 0,-1 0,-2l0 -71z"/>
   <path class="fil7" d="M2395 1678c0,-2 0,-4 0,-7l0 -76 -4 0 -4 0 0 5 0 73 0 5 4 0 4 0z"/>
   <polygon class="fil6" points="604,1600 727,1600 727,1527 604,1527 "/>
   <path class="fil7" d="M609 1595l113 0 0 -63 -113 0 0 63zm118 10l-123 0 -5 0 0 -5 0 -73 0 -5 5 0 123 0 5 0 0 5 0 73 0 5 -5 0z"/>
   <polygon class="fil6" points="850,1600 727,1600 727,1527 850,1527 "/>
   <path class="fil7" d="M850 1605l-123 0 -5 0 0 -5 0 -73 0 -5 5 0 123 0 5 0 0 5 0 73 0 5 -5 0zm-118 -10l113 0 0 -63 -113 0 0 63z"/>
   <polygon class="fil6" points="850,1600 974,1600 974,1527 850,1527 "/>
   <path class="fil7" d="M855 1595l114 0 0 -63 -114 0 0 63zm119 10l-124 0 -5 0 0 -5 0 -73 0 -5 5 0 124 0 5 0 0 5 0 73 0 5 -5 0z"/>
   <polygon class="fil6" points="1344,1600 1220,1600 1220,1527 1344,1527 "/>
   <path class="fil7" d="M1344 1605l-124 0 -5 0 0 -5 0 -73 0 -5 5 0 124 0 5 0 0 5 0 73 0 5 -5 0zm-119 -10l114 0 0 -63 -114 0 0 63z"/>
   <polygon class="fil6" points="1097,1600 1220,1600 1220,1527 1097,1527 "/>
   <path class="fil7" d="M1102 1595l113 0 0 -63 -113 0 0 63zm118 10l-123 0 -5 0 0 -5 0 -73 0 -5 5 0 123 0 5 0 0 5 0 73 0 5 -5 0z"/>
   <polygon class="fil6" points="1097,1600 974,1600 974,1527 1097,1527 "/>
   <path class="fil7" d="M1097 1605l-123 0 -5 0 0 -5 0 -73 0 -5 5 0 123 0 5 0 0 5 0 73 0 5 -5 0zm-118 -10l113 0 0 -63 -113 0 0 63z"/>
   <polygon class="fil6" points="2083,1600 1960,1600 1960,1527 2083,1527 "/>
   <path class="fil7" d="M2083 1605l-123 0 -5 0 0 -5 0 -73 0 -5 5 0 123 0 5 0 0 5 0 73 0 5 -5 0zm-118 -10l113 0 0 -63 -113 0 0 63z"/>
   <polygon class="fil6" points="1837,1600 1960,1600 1960,1527 1837,1527 "/>
   <path class="fil7" d="M1842 1595l113 0 0 -63 -113 0 0 63zm118 10l-123 0 -5 0 0 -5 0 -73 0 -5 5 0 123 0 5 0 0 5 0 73 0 5 -5 0z"/>
   <polygon class="fil6" points="1837,1600 1713,1600 1713,1527 1837,1527 "/>
   <path class="fil7" d="M1837 1605l-124 0 -5 0 0 -5 0 -73 0 -5 5 0 124 0 5 0 0 5 0 73 0 5 -5 0zm-119 -10l114 0 0 -63 -114 0 0 63z"/>
   <polygon class="fil6" points="1344,1600 1467,1600 1467,1527 1344,1527 "/>
   <path class="fil7" d="M1349 1595l113 0 0 -63 -113 0 0 63zm118 10l-123 0 -5 0 0 -5 0 -73 0 -5 5 0 123 0 5 0 0 5 0 73 0 5 -5 0z"/>
   <polygon class="fil6" points="1590,1600 1467,1600 1467,1527 1590,1527 "/>
   <path class="fil7" d="M1590 1605l-123 0 -5 0 0 -5 0 -73 0 -5 5 0 123 0 5 0 0 5 0 73 0 5 -5 0zm-118 -10l113 0 0 -63 -113 0 0 63z"/>
   <polygon class="fil6" points="1590,1600 1713,1600 1713,1527 1590,1527 "/>
   <path class="fil7" d="M1595 1595l113 0 0 -63 -113 0 0 63zm118 10l-123 0 -5 0 0 -5 0 -73 0 -5 5 0 123 0 5 0 0 5 0 73 0 5 -5 0z"/>
   <polygon class="fil6" points="2083,1600 2207,1600 2207,1527 2083,1527 "/>
   <path class="fil7" d="M2088 1595l114 0 0 -63 -114 0 0 63zm119 10l-124 0 -5 0 0 -5 0 -73 0 -5 5 0 124 0 5 0 0 5 0 73 0 5 -5 0z"/>
   <polygon class="fil6" points="2330,1600 2207,1600 2207,1527 2330,1527 "/>
   <path class="fil7" d="M2330 1605l-123 0 -5 0 0 -5 0 -73 0 -5 5 0 123 0 5 0 0 5 0 73 0 5 -5 0zm-118 -10l113 0 0 -63 -113 0 0 63z"/>
   <polygon class="fil6" points="2330,1600 2395,1600 2396,1527 2330,1527 "/>
   <polygon class="fil7" points="2335,1595 2395,1595 2395,1605 2330,1605 2325,1605 2325,1600 2325,1527 2325,1522 2330,1522 2396,1522 2396,1532 2335,1532 "/>
   <polygon class="fil6" points="604,1600 585,1600 586,1527 604,1527 "/>
   <polygon class="fil7" points="604,1605 585,1605 585,1595 599,1595 599,1532 586,1532 586,1522 604,1522 609,1522 609,1527 609,1600 609,1605 "/>
   <polygon class="fil6" points="586,1527 666,1527 666,1454 586,1454 "/>
   <polygon class="fil7" points="586,1522 661,1522 661,1459 586,1459 586,1449 666,1449 670,1449 670,1454 670,1527 670,1532 666,1532 586,1532 "/>
   <polygon class="fil6" points="789,1527 666,1527 666,1454 789,1454 "/>
   <path class="fil7" d="M789 1532l-123 0 -5 0 0 -5 0 -73 0 -5 5 0 123 0 5 0 0 5 0 73 0 5 -5 0zm-119 -10l114 0 0 -63 -114 0 0 63z"/>
   <polygon class="fil6" points="789,1527 912,1527 912,1454 789,1454 "/>
   <path class="fil7" d="M794 1522l113 0 0 -63 -113 0 0 63zm118 10l-123 0 -5 0 0 -5 0 -73 0 -5 5 0 123 0 5 0 0 5 0 73 0 5 -5 0z"/>
   <polygon class="fil6" points="1282,1527 1159,1527 1159,1454 1282,1454 "/>
   <path class="fil7" d="M1282 1532l-123 0 -5 0 0 -5 0 -73 0 -5 5 0 123 0 5 0 0 5 0 73 0 5 -5 0zm-118 -10l113 0 0 -63 -113 0 0 63z"/>
   <polygon class="fil6" points="1035,1527 1159,1527 1159,1454 1035,1454 "/>
   <path class="fil7" d="M1040 1522l114 0 0 -63 -114 0 0 63zm119 10l-124 0 -5 0 0 -5 0 -73 0 -5 5 0 124 0 5 0 0 5 0 73 0 5 -5 0z"/>
   <polygon class="fil6" points="1035,1527 912,1527 912,1454 1035,1454 "/>
   <path class="fil7" d="M1035 1532l-123 0 -5 0 0 -5 0 -73 0 -5 5 0 123 0 5 0 0 5 0 73 0 5 -5 0zm-118 -10l113 0 0 -63 -113 0 0 63z"/>
   <polygon class="fil6" points="2022,1527 1898,1527 1898,1454 2022,1454 "/>
   <path class="fil7" d="M2022 1532l-124 0 -5 0 0 -5 0 -73 0 -5 5 0 124 0 5 0 0 5 0 73 0 5 -5 0zm-119 -10l114 0 0 -63 -114 0 0 63z"/>
   <polygon class="fil6" points="1775,1527 1898,1527 1898,1454 1775,1454 "/>
   <path class="fil7" d="M1780 1522l113 0 0 -63 -113 0 0 63zm118 10l-123 0 -5 0 0 -5 0 -73 0 -5 5 0 123 0 5 0 0 5 0 73 0 5 -5 0z"/>
   <polygon class="fil6" points="1775,1527 1652,1527 1652,1454 1775,1454 "/>
   <path class="fil7" d="M1775 1532l-123 0 -5 0 0 -5 0 -73 0 -5 5 0 123 0 5 0 0 5 0 73 0 5 -5 0zm-118 -10l113 0 0 -63 -113 0 0 63z"/>
   <polygon class="fil6" points="1282,1527 1405,1527 1405,1454 1282,1454 "/>
   <path class="fil7" d="M1287 1522l113 0 0 -63 -113 0 0 63zm118 10l-123 0 -5 0 0 -5 0 -73 0 -5 5 0 123 0 5 0 0 5 0 73 0 5 -5 0z"/>
   <polygon class="fil6" points="1529,1527 1405,1527 1405,1454 1529,1454 "/>
   <path class="fil7" d="M1529 1532l-124 0 -5 0 0 -5 0 -73 0 -5 5 0 124 0 4 0 0 5 0 73 0 5 -4 0zm-119 -10l114 0 0 -63 -114 0 0 63z"/>
   <polygon class="fil6" points="1529,1527 1652,1527 1652,1454 1529,1454 "/>
   <path class="fil7" d="M1533 1522l114 0 0 -63 -114 0 0 63zm119 10l-123 0 -5 0 0 -5 0 -73 0 -5 5 0 123 0 5 0 0 5 0 73 0 5 -5 0z"/>
   <polygon class="fil6" points="2022,1527 2145,1527 2145,1454 2022,1454 "/>
   <path class="fil7" d="M2027 1522l113 0 0 -63 -113 0 0 63zm118 10l-123 0 -5 0 0 -5 0 -73 0 -5 5 0 123 0 5 0 0 5 0 73 0 5 -5 0z"/>
   <polygon class="fil6" points="2268,1527 2145,1527 2145,1454 2268,1454 "/>
   <path class="fil7" d="M2268 1532l-123 0 -5 0 0 -5 0 -73 0 -5 5 0 123 0 5 0 0 5 0 73 0 5 -5 0zm-118 -10l113 0 0 -63 -113 0 0 63z"/>
   <polygon class="fil6" points="2268,1527 2391,1527 2391,1454 2268,1454 "/>
   <path class="fil7" d="M2273 1522l114 0 0 -63 -114 0 0 63zm123 10l0 -83 -5 0 -123 0 -5 0 0 5 0 73 0 5 5 0 123 0 5 0z"/>
   <polygon class="fil6" points="2396,1527 2391,1527 2391,1454 2396,1454 "/>
   <polygon class="fil7" points="2396,1532 2391,1532 2387,1532 2387,1527 2387,1454 2387,1449 2391,1449 2396,1449 "/>
   <polygon class="fil6" points="604,1381 727,1381 727,1454 604,1454 "/>
   <path class="fil7" d="M604 1376l123 0 5 0 0 5 0 73 0 5 -5 0 -123 0 -5 0 0 -5 0 -73 0 -5 5 0zm118 10l-113 0 0 63 113 0 0 -63z"/>
   <polygon class="fil6" points="850,1381 727,1381 727,1454 850,1454 "/>
   <path class="fil7" d="M845 1386l-113 0 0 63 113 0 0 -63zm-118 -10l123 0 5 0 0 5 0 73 0 5 -5 0 -123 0 -5 0 0 -5 0 -73 0 -5 5 0z"/>
   <polygon class="fil6" points="850,1381 974,1381 974,1454 850,1454 "/>
   <path class="fil7" d="M850 1376l124 0 5 0 0 5 0 73 0 5 -5 0 -124 0 -5 0 0 -5 0 -73 0 -5 5 0zm119 10l-114 0 0 63 114 0 0 -63z"/>
   <polygon class="fil6" points="1344,1381 1220,1381 1220,1454 1344,1454 "/>
   <path class="fil7" d="M1339 1386l-114 0 0 63 114 0 0 -63zm-119 -10l124 0 5 0 0 5 0 73 0 5 -5 0 -124 0 -5 0 0 -5 0 -73 0 -5 5 0z"/>
   <polygon class="fil6" points="1097,1381 1220,1381 1220,1454 1097,1454 "/>
   <path class="fil7" d="M1097 1376l123 0 5 0 0 5 0 73 0 5 -5 0 -123 0 -5 0 0 -5 0 -73 0 -5 5 0zm118 10l-113 0 0 63 113 0 0 -63z"/>
   <polygon class="fil6" points="1097,1381 974,1381 974,1454 1097,1454 "/>
   <path class="fil7" d="M1092 1386l-113 0 0 63 113 0 0 -63zm-118 -10l123 0 5 0 0 5 0 73 0 5 -5 0 -123 0 -5 0 0 -5 0 -73 0 -5 5 0z"/>
   <polygon class="fil6" points="2083,1381 1960,1381 1960,1454 2083,1454 "/>
   <path class="fil7" d="M2078 1386l-113 0 0 63 113 0 0 -63zm-118 -10l123 0 5 0 0 5 0 73 0 5 -5 0 -123 0 -5 0 0 -5 0 -73 0 -5 5 0z"/>
   <polygon class="fil6" points="1837,1381 1960,1381 1960,1454 1837,1454 "/>
   <path class="fil7" d="M1837 1376l123 0 5 0 0 5 0 73 0 5 -5 0 -123 0 -5 0 0 -5 0 -73 0 -5 5 0zm118 10l-113 0 0 63 113 0 0 -63z"/>
   <polygon class="fil6" points="1837,1381 1713,1381 1713,1454 1837,1454 "/>
   <path class="fil7" d="M1832 1386l-114 0 0 63 114 0 0 -63zm-119 -10l124 0 5 0 0 5 0 73 0 5 -5 0 -124 0 -5 0 0 -5 0 -73 0 -5 5 0z"/>
   <polygon class="fil6" points="1344,1381 1467,1381 1467,1454 1344,1454 "/>
   <path class="fil7" d="M1344 1376l123 0 5 0 0 5 0 73 0 5 -5 0 -123 0 -5 0 0 -5 0 -73 0 -5 5 0zm118 10l-113 0 0 63 113 0 0 -63z"/>
   <polygon class="fil6" points="1590,1381 1467,1381 1467,1454 1590,1454 "/>
   <path class="fil7" d="M1585 1386l-113 0 0 63 113 0 0 -63zm-118 -10l123 0 5 0 0 5 0 73 0 5 -5 0 -123 0 -5 0 0 -5 0 -73 0 -5 5 0z"/>
   <polygon class="fil6" points="1590,1381 1713,1381 1713,1454 1590,1454 "/>
   <path class="fil7" d="M1590 1376l123 0 5 0 0 5 0 73 0 5 -5 0 -123 0 -5 0 0 -5 0 -73 0 -5 5 0zm118 10l-113 0 0 63 113 0 0 -63z"/>
   <polygon class="fil6" points="2083,1381 2207,1381 2207,1454 2083,1454 "/>
   <path class="fil7" d="M2083 1376l124 0 5 0 0 5 0 73 0 5 -5 0 -124 0 -5 0 0 -5 0 -73 0 -5 5 0zm119 10l-114 0 0 63 114 0 0 -63z"/>
   <polygon class="fil6" points="2330,1381 2207,1381 2207,1454 2330,1454 "/>
   <path class="fil7" d="M2325 1386l-113 0 0 63 113 0 0 -63zm-118 -10l123 0 5 0 0 5 0 73 0 5 -5 0 -123 0 -5 0 0 -5 0 -73 0 -5 5 0z"/>
   <polygon class="fil6" points="2330,1381 2397,1381 2396,1454 2330,1454 "/>
   <polygon class="fil7" points="2330,1376 2397,1376 2397,1386 2335,1386 2335,1449 2396,1449 2396,1459 2330,1459 2325,1459 2325,1454 2325,1381 2325,1376 "/>
   <polygon class="fil6" points="604,1381 587,1381 586,1454 604,1454 "/>
   <polygon class="fil7" points="599,1386 587,1386 587,1376 604,1376 609,1376 609,1381 609,1454 609,1459 604,1459 586,1459 586,1449 599,1449 "/>
   <polygon class="fil6" points="2268,1527 2396,1527 2396,1454 2268,1454 "/>
   <path class="fil7" d="M2273 1522l123 0 0 -63 -123 0 0 63zm119 10l-124 0 -5 0 0 -5 0 -73 0 -5 5 0 128 0 0 83 -4 0z"/>
   <path class="fil1" d="M1587 297c0,230 0,461 0,692l0 27 -15 -23c-5,-9 -25,-5 -34,-21 -10,-18 -20,-36 -29,-55 -26,-57 -45,-118 -56,-179 -11,-59 -15,-119 -10,-179 9,-100 45,-208 131,-269l13 -8 0 15z"/>
   <path class="fil5" d="M1579 297c-166,116 -169,437 -34,671 7,13 26,8 34,21 0,-231 0,-462 0,-692z"/>
   <path class="fil1" d="M1587 951c-3,120 45,203 -47,235 -29,10 -66,7 -83,-11 -30,-36 9,-69 38,-61 59,17 24,-19 13,-43 -18,-37 -9,-75 22,-119 22,-1 35,-1 57,-1z"/>
   <path class="fil1" d="M1773 1170c-30,13 -60,24 -89,34l-12 4 -6 -11c-9,-13 -17,-26 -25,-39l-11 -17 20 -6c8,-3 18,-6 27,-9l40 -67c-1,-31 2,-63 17,-91 16,-32 47,-60 72,-84l20 -21 6 28c3,14 5,26 7,39 12,-27 33,-53 51,-76l18 -23 9 27c5,13 8,25 11,36 6,-28 21,-56 33,-81l12 -25 16 24c2,3 4,7 6,10 -1,-28 3,-59 7,-85l4 -29 22 19c3,2 7,5 10,8 -5,-9 -9,-18 -13,-27 -6,-15 -12,-29 -19,-44l-16 -36 37 15c4,1 8,3 12,5 -3,-2 -6,-5 -9,-7 -10,-9 -19,-18 -27,-28 -11,-12 -21,-24 -32,-36l-27 -29 20 1c-8,-4 -14,-8 -21,-12 -13,-8 -25,-16 -37,-23l-35 -20 39 -9c22,-5 46,-9 69,-10 -34,-2 -68,-7 -98,-25 -10,-6 -19,-14 -29,-21 -11,-10 -22,-19 -34,-28l-31 -24 39 -4c11,-1 23,-2 34,-2 -7,-4 -14,-8 -20,-13 -13,-9 -24,-19 -35,-29 -13,-13 -26,-26 -40,-38l-30 -27 40 -1c67,-2 143,5 186,52 -4,-12 -7,-25 -10,-37l-5 -23 23 4c85,12 129,66 136,140l1 0c1,-12 2,-24 4,-35l4 -26 21 15c57,40 73,101 59,160 5,-13 11,-27 17,-40l11 -23 16 20c36,45 40,97 21,143 4,-4 7,-8 11,-12l17 -20 10 24c11,30 14,62 5,93 -12,45 -46,79 -87,99l-21 22c4,-3 8,-6 13,-8 12,-7 24,-12 37,-17 14,-6 28,-12 41,-19l23 -12 0 26c1,64 -35,104 -84,124 16,-2 31,-5 47,-8l25 -6 -6 25c-8,34 -25,63 -53,85 -9,7 -20,13 -30,18l7 0 -12 23c-16,30 -39,55 -71,69 -17,8 -35,12 -54,13l-16 18c-48,52 -137,65 -208,45l0 1 -80 -26zm-20 -71c20,-8 41,-16 61,-25l13 -46c-12,27 -35,49 -71,65l-3 6zm323 -110c3,-4 6,-7 9,-11 -4,4 -7,7 -11,11l2 0zm41 -46c-6,8 -13,15 -20,22 11,-9 22,-18 34,-26l-14 4zm1 -261c-10,-3 -19,-5 -29,-9 23,14 43,32 57,53 0,-8 -1,-15 -1,-22l-27 -22zm-14 122c-5,-3 -10,-7 -16,-11 9,13 15,28 18,44 1,7 1,13 2,19 1,-3 3,-6 5,-9l-9 -43zm-165 181c-3,-6 -5,-13 -7,-19 -6,30 -23,57 -56,79l0 0c20,-10 40,-21 59,-32l4 -28zm104 -57c-6,-8 -12,-15 -17,-23 1,17 0,33 -6,49 8,-7 16,-13 23,-20l0 -6z"/>
   <path class="fil2" d="M1817 895c-63,62 -86,82 -84,168l-45 76c-11,4 -22,7 -34,11 8,13 17,26 25,39 32,-11 63,-23 93,-35l71 22 0 -1c67,24 158,15 206,-36 -84,-14 -126,-41 -223,11l-26 -8c35,-16 69,-32 100,-49l86 6c83,34 162,20 202,-57 -85,-1 -120,-29 -206,37l-51 -4c24,-14 47,-29 68,-44l91 -8c90,14 164,-19 184,-103 -82,20 -123,1 -190,84l-57 5c32,-26 59,-52 81,-80l64 -17 -1 -1c72,-10 122,-51 122,-122 -64,33 -101,27 -139,107l-26 7c18,-26 33,-54 43,-83l34 -36c72,-35 105,-103 77,-173 -45,51 -59,70 -78,146l-23 24c4,-18 5,-37 5,-56l27 -68c49,-53 56,-122 13,-177 -30,64 -38,85 -33,172l-11 29c-4,-21 -10,-43 -18,-65l7 -84c25,-62 11,-127 -45,-166 -11,75 -11,97 23,190l-2 23c-6,-12 -49,-76 -46,-76l-8 -87 -3 0c-1,-75 -39,-129 -123,-142 17,79 37,105 108,161l3 43 0 -1c-29,-33 -63,-68 -103,-102 -22,-87 -114,-99 -200,-96 70,62 75,87 187,104 30,26 56,53 79,79l-57 -24c-27,-53 -94,-56 -156,-49 59,45 64,64 155,70l85 35c15,21 29,40 41,60l-29 -15c-31,-59 -102,-54 -166,-38 60,34 70,53 147,50l65 35c13,27 23,54 29,80l-10 -8c-14,-71 -90,-88 -163,-92 54,57 57,79 143,101l35 29c5,43 -1,84 -16,123l-2 -10 2 1c19,-81 -52,-124 -123,-153 31,69 29,92 98,138l11 54c-13,25 -30,48 -51,71l0 -9c31,-67 3,-119 -61,-172 -11,86 -17,115 41,183l0 18c-25,24 -54,47 -87,69l1 -14c54,-52 45,-107 2,-175 -33,70 -46,94 -20,164l0 -1 -5 39c-30,19 -63,36 -99,53l11 -41c65,-39 68,-95 40,-170 -46,60 -65,81 -55,152l-19 70c-35,15 -72,29 -112,43l40 -53c79,-34 81,-92 61,-181z"/>
   <path class="fil0" d="M2048 533c29,16 58,31 87,46m-299 513c8,-30 17,-60 25,-89m30 79c35,3 71,5 107,8m-16 -68c38,-3 76,-6 115,-9m65 -489c-3,32 -6,64 -9,96m-84 326c0,-14 0,-28 0,-42m-101 -462c37,15 73,30 109,46m47 282c5,28 11,55 17,83m71 -221c-13,33 -26,66 -38,98m-74 191c23,-6 46,-12 69,-19m65 -162c-25,26 -51,53 -77,80m-406 317c32,10 63,20 95,30m259 -530c23,20 47,40 70,59m-486 460c28,-46 55,-92 83,-138m311 -601c3,29 5,58 8,87m-132 531c2,-17 4,-34 6,-50"/>
   <path class="fil1" d="M1174 300c11,10 18,24 17,39 -1,27 -24,48 -51,46 -12,0 -23,-5 -31,-13 0,0 -1,0 -1,0 -26,-1 -46,-22 -46,-48 -7,-9 -10,-20 -10,-31 1,-27 24,-48 51,-47 6,1 12,2 17,4 6,-2 12,-3 18,-3 22,1 40,20 39,42 -1,4 -1,7 -3,11z"/>
   <path class="fil5" d="M1170 288c-1,5 -2,10 -4,14 11,8 19,22 18,37 -1,23 -21,41 -44,40 -11,-1 -21,-6 -28,-14 -1,0 -2,0 -4,0 -23,-1 -40,-20 -39,-43 -7,-8 -10,-18 -10,-29 1,-23 21,-41 44,-40 6,1 12,2 17,5 5,-3 12,-5 18,-4 18,1 32,16 32,34z"/>
   <path class="fil1" d="M1079 314c3,1 6,3 8,6 2,1 4,4 6,5 2,1 3,1 4,1l8 -1 -1 8c0,9 9,12 11,21 6,1 11,4 16,8 4,3 9,7 14,9 1,0 1,1 2,1l21 4 -20 9c-22,10 -63,-4 -89,0l-8 2 0 -8c0,-2 0,-5 -1,-7 -2,-27 -10,-64 2,-89 1,-2 2,-4 4,-6l11 -15 1 19c1,4 4,10 5,14 3,6 6,12 6,19z"/>
   <path class="fil8" d="M1061 281c1,12 13,26 11,37 13,5 14,16 25,15 0,14 13,16 12,27 17,1 24,16 37,18 -20,9 -62,-4 -88,1 -2,-37 -13,-74 3,-98z"/>
   <path class="fil1" d="M1084 382c13,9 21,24 21,40 1,28 -22,52 -51,53 -12,0 -24,-4 -34,-12 0,0 0,0 -1,0 -27,1 -51,-20 -53,-47 -8,-9 -12,-21 -12,-33 -1,-29 22,-52 50,-53 7,0 13,1 19,3 6,-3 12,-5 19,-5 24,-1 43,18 44,41 0,4 -1,9 -2,13z"/>
   <path class="fil5" d="M1078 370c1,5 0,10 -2,15 12,7 21,21 22,37 0,25 -19,45 -44,46 -12,0 -23,-5 -31,-12 -2,0 -3,0 -4,0 -24,1 -45,-19 -46,-43 -7,-8 -12,-18 -12,-30 0,-25 19,-45 44,-46 6,0 13,1 19,4 5,-4 11,-6 18,-6 20,0 36,15 36,35z"/>
   <path class="fil1" d="M984 403c3,2 6,4 9,6 2,2 5,5 7,6 1,0 2,0 4,0l8 -1 0 8c1,9 10,12 13,22 7,1 12,3 18,7 5,2 10,7 15,8 1,1 2,1 3,1l23 3 -21 11c-23,12 -68,1 -95,7l-8 2 -1 -8c-1,-3 -1,-5 -1,-8 -4,-28 -16,-67 -5,-94 1,-2 2,-5 3,-7l11 -17 3 20c1,5 4,11 7,15 3,6 6,13 7,19z"/>
   <path class="fil8" d="M963 370c2,12 15,27 14,39 14,4 16,15 28,13 1,15 14,16 14,29 18,-1 27,14 41,16 -20,11 -66,0 -94,7 -4,-39 -19,-78 -3,-104z"/>
   <path class="fil1" d="M1008 473c16,6 28,19 34,36 9,29 -8,61 -37,70 -13,4 -27,3 -39,-2 0,0 -1,0 -1,0 -28,9 -58,-6 -69,-34 -11,-7 -18,-17 -22,-30 -9,-29 7,-61 36,-70 7,-2 14,-3 20,-2 6,-5 12,-9 19,-11 24,-8 50,6 57,30 2,4 2,9 2,13z"/>
   <path class="fil5" d="M999 462c1,6 2,12 1,17 16,4 29,16 34,32 8,25 -6,52 -32,60 -12,4 -25,3 -36,-3 -1,1 -2,1 -3,1 -25,8 -52,-6 -60,-31 -10,-6 -18,-15 -22,-27 -8,-25 7,-52 32,-60 7,-2 14,-3 20,-2 5,-5 11,-9 18,-12 20,-6 42,5 48,25z"/>
   <path class="fil1" d="M911 525c4,1 8,2 11,4 3,1 6,3 9,3 1,0 3,0 4,0l8 -4 3 8c3,10 14,10 20,19 7,-1 13,0 20,2 6,1 13,4 18,4 1,0 2,0 3,0l25 -3 -18 17c-21,19 -71,21 -97,35l-8 5 -3 -8c-1,-3 -2,-5 -3,-8 -13,-28 -37,-65 -33,-96 0,-3 1,-5 1,-8l6 -21 9 20c3,4 8,10 12,14 5,5 10,11 13,17z"/>
   <path class="fil8" d="M879 497c6,12 24,23 26,36 16,0 21,11 33,6 5,15 20,12 23,25 19,-6 32,7 47,5 -17,17 -68,20 -95,34 -16,-38 -42,-74 -34,-106z"/>
   <path class="fil1" d="M952 607c17,4 32,15 40,32 14,29 1,64 -28,78 -13,6 -28,8 -41,4 -1,0 -1,0 -1,0 -28,14 -62,3 -77,-25 -12,-5 -22,-15 -28,-28 -14,-29 -1,-64 28,-78 7,-3 13,-5 21,-6 4,-6 10,-10 17,-14 24,-11 53,-1 65,23 2,5 3,9 4,14z"/>
   <path class="fil5" d="M940 597c3,5 4,11 4,17 17,2 32,12 40,28 12,26 1,56 -24,68 -12,6 -26,6 -38,2 -1,1 -2,1 -4,2 -25,12 -55,1 -67,-24 -11,-5 -21,-13 -26,-25 -12,-25 -2,-56 24,-68 7,-3 14,-4 21,-4 4,-7 10,-12 17,-15 20,-10 44,-1 53,19z"/>
   <path class="fil1" d="M858 675c4,0 8,1 12,2 3,1 7,3 10,3 1,0 2,-1 4,-2l8 -5 4 9c5,9 15,8 23,16 7,-2 14,-2 22,-1 6,1 14,3 20,2 1,0 1,0 2,0l25 -8 -16 21c-18,23 -70,32 -95,51l-8 6 -4 -8c-2,-2 -3,-5 -5,-7 -17,-28 -48,-63 -48,-96 0,-3 0,-5 0,-8l3 -23 12 19c3,5 10,10 14,13 6,5 13,10 17,16z"/>
   <path class="fil8" d="M820 651c8,11 28,20 33,33 17,-2 24,9 35,1 8,16 22,10 28,23 18,-9 35,3 50,-1 -16,20 -68,30 -94,50 -23,-39 -56,-72 -52,-106z"/>
   <path class="fil1" d="M947 736c17,-4 36,0 50,12 25,21 28,58 8,83 -9,11 -22,18 -36,20 0,1 0,1 0,1 -20,24 -55,29 -80,10 -14,0 -27,-5 -38,-13 -25,-21 -28,-58 -8,-83 5,-6 10,-10 17,-14 1,-7 5,-14 9,-20 17,-21 48,-24 69,-7 3,3 6,7 9,11z"/>
   <path class="fil5" d="M932 732c5,4 9,8 11,13 16,-5 34,-2 48,9 22,18 25,50 7,72 -8,10 -21,16 -33,18 -1,1 -2,2 -3,3 -17,21 -49,24 -71,7 -12,0 -24,-3 -34,-12 -22,-17 -25,-49 -7,-71 5,-6 11,-10 17,-13 1,-8 4,-15 9,-21 14,-17 39,-19 56,-5z"/>
   <path class="fil1" d="M891 838c4,-2 8,-3 12,-4 3,0 7,-1 10,-2 1,0 2,-1 3,-2l5 -8 7 5c9,7 18,1 28,5 6,-4 12,-7 20,-10 5,-2 13,-3 18,-6 1,-1 2,-1 3,-2l19 -17 -6 25c-7,29 -49,59 -64,87l-5 9 -7 -6c-3,-1 -5,-3 -7,-4 -28,-18 -70,-36 -85,-66 -1,-3 -2,-5 -3,-8l-7 -22 19 12c5,3 13,5 18,6 8,2 16,4 22,8z"/>
   <path class="fil8" d="M847 831c12,8 34,7 44,17 14,-10 25,-2 32,-14 14,11 24,0 35,9 13,-16 32,-12 44,-23 -6,25 -49,57 -64,86 -36,-25 -80,-42 -91,-75z"/>
   <path class="fil1" d="M988 863c16,-10 35,-12 53,-5 32,12 48,47 36,79 -5,13 -15,25 -28,32 0,0 0,0 0,1 -12,30 -45,46 -76,36 -13,5 -27,5 -40,0 -32,-12 -48,-47 -36,-79 2,-7 6,-13 11,-19 -1,-7 0,-15 3,-23 10,-26 38,-39 64,-29 5,1 9,4 13,7z"/>
   <path class="fil5" d="M972 864c6,2 11,5 15,10 14,-11 33,-15 51,-8 27,10 41,40 31,67 -5,14 -15,24 -27,30 -1,1 -1,2 -2,3 -10,27 -40,41 -67,31 -11,5 -25,5 -37,1 -28,-11 -41,-41 -31,-68 3,-7 7,-14 12,-19 -1,-7 -1,-15 2,-23 8,-21 32,-32 53,-24z"/>
   <path class="fil1" d="M968 982c3,-3 6,-6 10,-8 3,-1 7,-3 9,-5 1,-1 2,-2 2,-4l2 -9 10 3c10,4 17,-6 29,-5 4,-6 9,-11 15,-16 5,-4 12,-8 16,-13 1,-1 2,-1 2,-2l13 -24 3 27c3,31 -29,75 -34,107l-1 10 -10 -3c-2,0 -5,-1 -8,-2 -33,-8 -80,-12 -105,-36 -2,-2 -4,-4 -6,-7l-14 -19 23 6c6,1 14,0 20,-1 7,0 16,-1 24,1z"/>
   <path class="fil8" d="M922 990c14,3 36,-5 49,2 10,-14 24,-11 27,-25 17,6 23,-8 37,-3 7,-20 28,-23 36,-37 2,26 -29,72 -34,105 -45,-12 -93,-13 -115,-42z"/>
   <path class="fil1" d="M1064 973c10,-16 27,-28 47,-30 35,-5 68,20 72,55 2,16 -1,31 -10,44 0,0 0,1 0,1 5,34 -18,65 -52,72 -10,10 -23,17 -38,19 -35,5 -68,-20 -72,-55 -1,-8 -1,-16 1,-23 -5,-7 -8,-15 -9,-23 -4,-29 17,-56 46,-60 5,0 10,0 15,0z"/>
   <path class="fil5" d="M1050 982c6,-1 13,0 19,2 7,-17 23,-30 43,-32 30,-4 58,17 62,48 2,14 -2,29 -11,40 1,1 1,3 1,4 4,30 -17,58 -47,62 -9,10 -21,17 -35,19 -30,4 -58,-17 -62,-47 -1,-9 -1,-17 2,-24 -5,-6 -9,-14 -10,-23 -3,-24 14,-46 38,-49z"/>
   <path class="fil1" d="M1104 1094c1,-4 3,-8 6,-12 2,-2 5,-6 6,-9 0,-2 0,-3 0,-5l-3 -9 10 -2c12,-2 14,-14 25,-19 1,-8 3,-15 6,-23 3,-6 8,-13 9,-20 0,-1 1,-2 1,-3l0 -28 16 24c18,26 10,83 22,116l3 10 -10 2c-3,1 -6,2 -9,2 -34,9 -81,29 -116,19 -2,-1 -5,-2 -8,-4l-23 -10 24 -7c6,-1 13,-7 18,-10 7,-4 15,-10 23,-12z"/>
   <path class="fil8" d="M1066 1125c14,-4 31,-22 45,-23 3,-18 18,-21 14,-36 18,-3 17,-19 33,-21 -4,-22 14,-35 15,-52 15,23 9,81 20,114 -47,11 -93,34 -127,18z"/>
   <path class="fil1" d="M1218 1049c9,-18 27,-32 47,-36 37,-8 73,15 82,52 3,16 1,33 -7,47 0,0 0,1 0,1 8,36 -13,71 -48,81 -10,12 -24,20 -39,24 -37,8 -73,-15 -81,-52 -2,-8 -3,-17 -1,-25 -6,-7 -10,-15 -12,-23 -6,-31 13,-61 43,-67 5,-2 11,-2 16,-2z"/>
   <path class="fil5" d="M1204 1060c7,-1 14,-1 20,0 7,-18 23,-33 43,-38 32,-7 63,13 70,45 4,16 0,31 -7,44 0,1 0,3 1,4 7,32 -13,63 -45,70 -8,12 -20,20 -35,23 -32,7 -63,-13 -70,-44 -2,-9 -2,-18 0,-26 -6,-6 -10,-14 -12,-22 -6,-26 10,-50 35,-56z"/>
   <path class="fil1" d="M1272 1174c1,-5 2,-9 5,-14 1,-3 4,-7 5,-10 1,-2 0,-3 0,-5l-4 -10 11 -3c11,-3 13,-15 24,-22 0,-8 2,-16 5,-25 2,-6 6,-14 7,-21 0,-1 0,-3 0,-4l-1 -30 19 24c21,27 18,87 33,121l4 10 -10 3c-3,1 -6,2 -9,4 -36,12 -83,37 -121,29 -3,0 -6,-1 -9,-2l-26 -9 26 -10c6,-2 13,-8 18,-12 7,-5 14,-11 23,-14z"/>
   <path class="fil8" d="M1234 1210c15,-6 31,-27 46,-29 2,-19 16,-24 11,-39 19,-5 17,-22 33,-25 -6,-24 12,-39 11,-57 18,23 17,85 32,119 -49,16 -95,44 -133,31z"/>
   <path class="fil7" d="M617 1904c66,-18 131,-33 199,-34 61,0 116,17 172,35 54,17 108,34 166,33 56,0 115,-18 174,-36 65,-20 131,-40 198,-40 68,0 133,20 198,40 60,18 118,36 174,36 58,1 113,-16 167,-33 55,-18 110,-35 171,-35 44,1 88,7 131,17 -3,13 -7,26 -11,38 -40,-9 -80,-15 -120,-15 -54,-1 -107,16 -159,33 -57,18 -115,36 -179,35 -62,-1 -123,-20 -185,-39 -62,-19 -125,-38 -187,-38 -62,0 -124,19 -186,38 -62,19 -124,38 -186,39 -64,1 -121,-17 -178,-35 -53,-17 -105,-34 -160,-33 -62,0 -124,15 -187,32 -4,-12 -8,-25 -12,-38zm35 100c6,13 11,25 17,37 49,-12 98,-22 147,-22 55,0 107,16 160,33 57,18 114,36 178,35 62,-1 124,-19 186,-38 62,-19 124,-38 186,-38 62,0 125,19 187,38 62,19 123,37 185,38 64,1 122,-17 179,-35 52,-17 105,-33 159,-33 27,0 54,3 81,8 6,-12 11,-25 16,-37 -32,-6 -64,-10 -97,-10 -61,-1 -116,17 -171,34 -54,17 -109,35 -167,34 -56,-1 -114,-19 -174,-37 -65,-20 -130,-40 -198,-40 -67,0 -133,20 -198,40 -59,18 -118,36 -174,37 -58,1 -112,-17 -166,-34 -56,-17 -111,-35 -172,-34 -55,0 -110,11 -164,24zm49 98c7,13 15,25 23,36 31,-6 62,-9 92,-10 55,0 107,17 160,33 57,18 114,36 178,36 62,-1 124,-20 186,-39 62,-19 124,-38 186,-38 62,0 125,19 187,38 62,19 123,38 185,39 64,0 122,-18 179,-36 52,-16 105,-33 159,-33 9,0 17,1 26,1 7,-12 15,-24 22,-37 -16,-2 -32,-3 -48,-3 -61,-1 -116,17 -171,34 -54,18 -109,35 -167,34 -56,-1 -114,-18 -174,-37 -65,-20 -130,-40 -198,-40 -67,0 -133,20 -198,40 -59,19 -118,36 -174,37 -58,1 -112,-16 -166,-34 -56,-17 -111,-35 -172,-34 -39,0 -77,6 -115,13zm67 99c10,13 21,25 31,37 6,0 12,0 17,0 55,-1 107,16 160,33 57,18 114,36 178,35 62,-1 124,-20 186,-39 62,-19 124,-38 186,-38 62,0 125,19 187,38 62,19 123,38 185,39 64,1 122,-17 179,-35 33,-11 65,-21 98,-27 13,-15 26,-30 38,-45 -52,3 -100,19 -148,34 -54,17 -109,34 -167,33 -56,0 -114,-18 -174,-36 -65,-20 -130,-40 -198,-40 -67,0 -133,20 -198,40 -59,18 -118,36 -174,36 -58,1 -112,-16 -166,-33 -56,-18 -111,-35 -172,-35 -16,0 -32,1 -48,3zm104 111c23,21 47,40 72,58 11,3 21,7 32,10 57,18 114,36 178,35 62,-1 124,-19 186,-38 62,-19 124,-38 186,-38 62,0 125,19 187,38 62,19 123,37 185,38 28,1 55,-3 82,-8 33,-21 66,-44 96,-68l-11 3c-54,17 -109,35 -167,34 -56,-1 -114,-19 -174,-37 -65,-20 -130,-40 -198,-40 -67,0 -133,20 -198,40 -59,18 -118,36 -174,37 -58,1 -112,-17 -166,-34 -38,-12 -76,-24 -116,-30zm292 173c29,10 59,19 90,26 28,-7 57,-16 86,-25 62,-19 124,-38 186,-38 62,0 125,19 187,38 17,5 33,10 50,15 24,-7 48,-14 71,-23 -36,-7 -73,-18 -110,-30 -65,-19 -130,-40 -198,-40 -67,0 -133,21 -198,40 -55,17 -111,34 -164,37z"/>
   <path class="fil9" d="M750 2528l14 9c-3,5 -4,10 -3,15 1,4 3,7 7,10 5,4 9,5 13,5 3,-1 6,-3 8,-5 2,-2 2,-4 2,-6 0,-2 0,-4 -2,-7 -1,-2 -4,-6 -9,-12 -6,-7 -9,-13 -10,-18 -1,-8 1,-14 5,-21 3,-4 7,-6 11,-8 5,-2 9,-3 14,-2 5,1 10,3 16,7 8,6 13,13 15,21 1,7 -1,14 -6,22l-14 -10c2,-4 3,-8 2,-11 -1,-3 -3,-6 -7,-9 -4,-3 -8,-4 -11,-4 -3,0 -4,1 -6,3 -1,2 -2,4 -1,6 0,3 3,8 9,15 5,6 9,12 11,16 2,4 2,9 2,13 -1,5 -3,10 -7,15 -3,4 -7,7 -12,10 -5,2 -10,3 -15,1 -6,-1 -11,-3 -17,-8 -9,-6 -14,-13 -15,-21 -2,-8 0,-16 6,-26zm58 82l33 -92 15 10 -24 62 48 -47 17 10 -23 65 47 -50 14 9 -68 70 -15 -9 23 -70 -52 52 -15 -10zm147 85l-17 -9 3 -22 -30 -16 -16 16 -16 -8 73 -70 16 8 -13 101zm-11 -48l5 -37 -26 26 21 11zm29 55l32 -72 -23 -10 6 -15 62 27 -7 15 -23 -10 -32 72 -15 -7zm112 44l-17 -6 0 -23 -32 -11 -14 19 -17 -6 62 -80 17 6 1 101zm-17 -45l0 -38 -22 30 22 8zm26 49l25 -92 16 5 17 70 16 -61 16 4 -25 92 -16 -5 -17 -69 -16 60 -16 -4zm101 26l15 -78 -25 -5 3 -15 66 12 -3 16 -24 -4 -15 77 -17 -3zm52 12l12 -95 36 5c9,1 15,2 19,4 4,3 7,6 9,11 2,4 2,9 2,15 -1,7 -4,13 -8,17 -4,4 -10,6 -18,7 3,3 6,6 8,9 2,3 5,8 8,16l8 20 -20 -3 -10 -22c-4,-8 -6,-12 -7,-15 -2,-2 -3,-3 -5,-4 -2,-1 -4,-2 -8,-2l-4 -1 -5 40 -17 -2zm24 -53l13 2c8,1 13,1 15,0 2,0 4,-1 5,-3 2,-2 3,-4 3,-7 0,-3 0,-6 -1,-8 -2,-2 -4,-3 -6,-4 -2,-1 -6,-1 -13,-2l-13 -2 -3 24zm137 67l-19 -1 -6 -22 -34 -2 -8 21 -18 -1 38 -93 18 1 29 97zm-29 -40l-10 -35 -14 34 24 1zm79 39l-21 -95 18 0 13 65 15 -65 21 0 14 67 13 -67 18 0 -21 95 -18 0 -17 -71 -17 71 -18 0zm99 0l-2 -95 17 0 2 95 -17 0zm27 -95l34 -3c6,0 11,0 15,0 3,1 6,2 9,3 2,2 5,5 7,8 2,3 3,7 3,11 0,4 0,8 -2,12 -2,4 -5,7 -8,9 5,2 9,4 12,8 3,4 5,9 5,14 1,4 0,9 -2,13 -1,4 -3,8 -6,10 -3,3 -7,5 -11,6 -3,0 -10,1 -21,2l-29 2 -6 -95zm18 14l1 22 12 -1c6,0 10,0 12,-1 3,0 5,-2 7,-4 1,-2 2,-4 2,-7 -1,-3 -1,-6 -3,-7 -2,-2 -4,-3 -7,-3 -1,0 -6,0 -14,1l-10 0zm3 38l1 25 16 -1c6,0 10,-1 12,-1 2,-1 4,-2 6,-4 1,-2 2,-5 2,-9 -1,-2 -1,-5 -3,-7 -1,-2 -3,-3 -5,-4 -3,0 -8,0 -16,0l-13 1zm146 23l-18 3 -10 -20 -34 4 -4 23 -18 2 20 -99 18 -2 46 89zm-36 -32l-17 -34 -6 37 23 -3zm50 29l-41 -88 17 -4 27 61 1 -68 19 -4 30 61 -2 -67 16 -4 2 97 -18 4 -32 -65 -1 73 -18 4zm163 -47l-18 6 -14 -18 -32 10 0 23 -17 5 2 -100 17 -6 62 80zm-42 -26l-22 -30 0 37 22 -7zm76 12l-40 -87 23 -11 42 53 -14 -66 23 -10 41 86 -15 7 -32 -68 17 75 -15 7 -47 -61 32 68 -15 7zm43 -127l15 -8 25 45c4,7 7,12 8,13 3,4 6,5 10,6 3,1 7,0 11,-2 4,-3 7,-5 8,-8 1,-4 1,-7 0,-10 -1,-3 -4,-8 -7,-14l-26 -46 15 -9 24 44c6,10 10,17 11,22 2,4 2,9 1,13 0,4 -2,8 -5,11 -2,4 -7,8 -12,11 -8,4 -13,6 -18,6 -5,0 -9,-1 -13,-2 -3,-2 -7,-4 -9,-7 -4,-4 -8,-11 -13,-21l-25 -44zm121 40l-52 -80 15 -9 23 35 6 -54 19 -13 -7 49 60 30 -18 13 -44 -25 -3 21 15 24 -14 9zm85 -60l-48 -63 -20 15 -9 -13 53 -40 10 13 -20 15 48 63 -14 10zm41 -34l-61 -73 13 -11 61 73 -13 11z"/>
  </g>
 </g>
</svg>
